<svg t="1755153322263" viewBox="0 0 1024 1024" version="1.1" xmlns="http://www.w3.org/2000/svg" p-id="7281" xmlns:xlink="http://www.w3.org/1999/xlink"><path d="M432 1015.466667c-37.866667-7.466667-74.133333-20.266667-92.8-33.066667-28.8-19.733333-70.4-81.066667-83.2-122.666667-12.266667-39.466667-14.4-125.333333-4.266667-154.133333 5.333333-14.933333 9.066667-17.6 22.933334-17.6 11.733333 0 17.6 3.2 21.333333 12.266667 3.733333 8.533333 13.333333 13.866667 34.666667 18.666666 16 4.266667 34.133333 11.733333 40 17.066667 5.866667 4.8 20.266667 12.266667 32 16s26.133333 11.2 32 16.533333 23.466667 12.266667 38.933333 15.466667c14.933333 3.733333 27.733333 8 27.733333 10.666667 0 5.866667 30.933333 21.333333 43.2 21.333333 5.333333 0 12.8 4.266667 16.533334 9.6 8 10.666667 32.533333 22.4 47.466666 22.4 13.333333 0 43.2 14.933333 49.066667 24.533333 2.133333 4.266667 9.066667 7.466667 14.933333 7.466667 10.133333 0 26.133333 7.466667 42.133334 19.2 4.266667 3.2 14.933333 7.466667 23.466666 9.6 16.533333 3.733333 29.866667 14.933333 29.866667 24 0 3.2 2.666667 5.866667 5.333333 5.866667 14.4 0 2.133333 11.2-28.8 26.133333-84.266667 40.533333-118.4 48.533333-216.533333 51.2-45.333333 1.066667-88.533333 0.533333-96-0.533333zM77.866667 249.6c8-12.8 21.333333-32 29.866666-42.666667 15.466667-19.733333 16.533333-20.266667 52.8-20.266666 36.8 0 72.533333 10.133333 80.533334 22.933333 2.133333 3.733333 4.266667 13.866667 4.266666 22.4 0 13.866667-2.666667 17.066667-19.733333 22.933333-33.6 11.733333-65.6 16.533333-115.2 16.533334l-46.4 0.533333 13.866667-22.4z" fill="#15D26C" p-id="7282"></path><path d="M416 1010.666667c-16-3.733333-37.333333-8.533333-46.4-10.666667-9.6-2.133333-17.6-5.866667-17.6-8s-4.8-5.333333-10.666667-6.933333c-7.466667-1.6-10.666667-7.466667-10.666666-16.533334 0-11.2-2.666667-13.866667-13.333334-13.866666-8 0-14.933333-3.733333-17.066666-9.066667-2.133333-4.8-8-13.333333-13.333334-18.666667-9.6-9.6-13.866667-46.933333-5.333333-46.933333 2.133333 0.533333 14.933333 16.533333 28.266667 36.266667 29.333333 42.666667 68.8 72 121.066666 90.133333 38.933333 13.333333 31.466667 15.466667-14.933333 4.266667zM749.333333 954.133333c-2.133333-3.2-2.666667-6.933333-0.533333-8.533333 4.8-4.8-10.666667-17.066667-26.666667-20.8-8.533333-2.133333-19.2-6.4-23.466666-9.6-16-11.733333-32-19.2-42.133334-19.2-5.866667 0-12.8-3.2-14.933333-7.466667-5.866667-9.6-35.733333-24.533333-49.066667-24.533333-14.933333 0-39.466667-11.733333-47.466666-22.4-3.733333-5.333333-11.2-9.6-16.533334-9.6-12.266667 0-43.2-15.466667-43.2-21.333333 0-2.666667-12.8-6.933333-27.733333-10.666667-15.466667-3.2-33.066667-10.133333-38.933333-15.466667s-20.266667-12.8-32-16.533333-26.133333-11.2-32-16.533333-23.466667-12.266667-38.933334-15.466667c-14.933333-3.733333-28.8-8.533333-30.933333-11.2-5.866667-9.6-18.133333-4.8-21.333333 8.533333-1.6 7.466667-6.4 13.333333-10.666667 13.333334-18.133333 0 0-80.533333 27.733333-124.8 13.333333-20.266667 18.133333-24 33.066667-24.533334 14.933333 0 17.066667 1.6 17.066667 13.333334 0 11.2 2.666667 13.333333 16 13.333333 8.533333 0 27.733333 7.466667 41.6 16 14.4 9.066667 29.866667 16 34.133333 16 4.8 0 11.2 3.733333 14.933333 8s12.266667 8 18.666667 8 14.933333 3.733333 18.666667 8 12.266667 8 19.2 8c12.266667 0 88.533333 36.266667 91.733333 44.266667 1.066667 2.133333 5.866667 3.733333 10.666667 3.733333 5.333333 0 14.933333 4.8 22.4 10.666667s16.533333 10.666667 20.8 10.666666 11.733333 3.2 16 6.933334c4.8 3.733333 19.2 11.2 32.533333 16.533333s29.866667 12.8 37.333333 17.066667c7.466667 3.733333 21.866667 11.2 32 15.466666 10.133333 4.8 26.133333 12.266667 35.733334 16.533334s18.666667 10.133333 20.266666 12.8c1.6 3.2 9.066667 5.333333 16 5.333333s19.2 5.866667 27.2 12.266667l14.4 12.8-10.666666 10.666666c-38.933333 38.933333-105.066667 80.533333-110.933334 70.4zM251.2 851.2c-14.933333-59.733333 2.133333-71.466667 19.2-13.866667l10.666667 37.333334h-11.733334c-9.6 0-13.333333-4.266667-18.133333-23.466667zM37.333333 333.333333c0-5.866667 29.333333-64.533333 36.266667-73.066666 5.866667-6.933333 13.333333-8.533333 32.533333-6.4 27.2 3.2 72-3.2 103.466667-15.466667 19.2-6.933333 19.733333-8 11.733333-16-4.8-4.8-18.133333-11.733333-29.333333-14.933333-27.2-8-28.266667-20.8-2.666667-20.8 20.8 0 53.866667 14.4 67.733334 30.4 13.333333 14.933333 25.6 46.933333 25.6 67.2v18.666666l-30.4 2.666667c-17.066667 1.6-47.466667 6.4-68.266667 11.733333-20.266667 4.8-46.933333 10.666667-58.666667 13.333334-22.4 5.333333-88 6.933333-88 2.666666zM106.666667 208c12.8-16 20.8-21.333333 32.533333-21.333333 10.133333 0 15.466667 2.666667 15.466667 8 0 4.266667-3.2 8-7.466667 8-3.733333 0-18.133333 5.866667-32.533333 13.333333l-25.066667 13.866667 17.066667-21.866667z" fill="#19D17F" p-id="7283"></path><path d="M385.6 1004.266667c-24-6.933333-28.266667-10.133333-28.266667-21.333334v-12.8l14.933334 10.666667c8.533333 5.866667 27.2 15.466667 41.6 21.333333 32.533333 13.333333 13.866667 14.4-28.266667 2.133334zM293.333333 928c0-11.733333-2.666667-16-9.6-16-11.733333 0-22.4-20.8-22.4-42.666667 0-24 8.533333-19.2 24.533334 12.266667 8 14.933333 20.266667 35.733333 27.733333 45.333333l12.8 17.066667h-16.533333c-14.933333 0-16.533333-1.6-16.533334-16zM837.866667 874.666667c-6.933333-5.866667-18.133333-10.666667-25.066667-10.666667-6.4 0-13.866667-2.666667-15.466667-5.333333-3.733333-5.866667-46.933333-26.666667-54.933333-26.666667-2.666667 0-11.2-4.8-18.133333-10.666667-7.466667-5.333333-14.933333-8.533333-17.066667-6.933333-1.6 1.6-3.2 0.533333-3.2-2.666667 0-3.733333-3.2-6.4-7.466667-6.4-10.133333 0-55.466667-20.266667-59.2-26.666666-1.6-3.2-7.466667-5.333333-12.266666-5.333334s-14.933333-4.8-22.4-10.666666-17.066667-10.666667-22.4-10.666667c-4.8 0-9.6-1.6-10.666667-3.733333-3.2-7.466667-79.466667-44.266667-91.2-44.266667-6.933333 0-14.933333-2.666667-18.666667-6.4-3.2-3.2-11.733333-6.933333-18.133333-8s-15.466667-5.333333-20.266667-9.6-11.733333-8-16-8c-3.733333 0-18.666667-6.933333-33.066666-16-13.866667-8.533333-32.533333-16-41.066667-16-9.6 0-16.533333-3.2-18.666667-9.066667-3.2-7.466667-5.866667-5.866667-15.466666 8-6.4 9.066667-13.333333 17.066667-15.466667 17.066667-9.066667 0-3.733333-37.866667 6.4-48 5.866667-5.866667 10.666667-12.8 10.666667-15.466667 0-6.933333 41.6-41.6 61.333333-51.733333 8.533333-4.266667 26.133333-9.6 38.4-11.2 19.733333-2.666667 24-1.066667 33.066667 9.6 5.866667 6.933333 12.266667 21.333333 14.4 31.466667s9.066667 29.866667 16 43.733333c41.6 82.666667 119.466667 112.533333 212.266666 82.133333 46.933333-15.466667 65.066667-17.066667 77.333334-6.933333 4.8 4.266667 26.666667 14.933333 48.533333 24.533333s43.733333 20.8 48 24c4.266667 3.733333 20.266667 11.2 34.666667 16.533334 14.933333 4.8 34.133333 14.933333 42.666666 21.333333l15.466667 12.8-13.866667 20.266667c-15.466667 22.933333-66.133333 76.266667-72.533333 76.266666-2.133333-0.533333-9.6-5.333333-16.533333-10.666666zM242.666667 802.666667c-4.266667-41.6-0.533333-87.466667 9.066666-121.066667 4.8-15.466667 8.533333-20.266667 18.133334-20.266667h11.733333l-10.666667 33.6c-8.533333 26.666667-10.133333 43.733333-8.533333 90.666667 2.133333 51.733333 1.6 57.066667-6.933333 57.066667-7.466667 0-10.133333-6.933333-12.8-40zM11.2 436.266667c4.8-34.133333 14.933333-75.733333 24-98.133334 6.933333-16 8.533333-16.533333 46.933333-19.733333 21.866667-2.133333 45.333333-5.866667 52.266667-8.533333 22.933333-9.066667 121.066667-28.266667 126.4-24.533334 8 4.266667 7.466667 0.533333-2.133333-22.4-10.666667-25.6-21.866667-37.866667-46.4-50.133333-21.333333-11.2-64-13.333333-86.4-4.8-18.133333 6.4-19.2-6.4-2.133334-18.133333 13.333333-9.6 73.6-11.733333 73.6-3.2 0 3.2 5.866667 5.333333 12.8 5.333333 22.4 0 29.866667 5.866667 29.866667 21.866667 0 13.333333 2.133333 15.466667 15.466667 15.466666 12.8 0 16.533333 3.2 24 21.333334 19.733333 49.6 6.933333 118.933333-27.733334 150.4-8 6.933333-20.266667 20.8-27.2 29.866666-9.6 13.333333-17.066667 17.066667-30.4 17.066667-9.6 0-18.133333-2.666667-19.2-5.866667-1.6-4.266667-21.866667-1.6-65.6 8-34.666667 7.466667-72 13.866667-82.666666 13.866667H6.933333l4.266667-27.733333z" fill="#1ED094" p-id="7284"></path><path d="M909.333333 792.533333c-8.533333-6.4-27.733333-16.533333-42.666666-21.866666-14.4-5.333333-30.4-12.8-34.666667-16.533334-10.666667-8.533333-80-39.466667-80-35.733333 0 2.133333-5.333333-1.6-11.733333-7.466667l-12.266667-11.2-37.333333 12.8c-46.933333 15.466667-56 16-56 2.133334 0-6.4 3.733333-10.666667 9.6-10.666667 27.2-0.533333 149.866667-84.266667 158.4-108.266667 4.266667-11.733333 29.866667-25.066667 48-25.066666 7.466667 0 18.666667 4.8 25.066666 10.666666s16 10.666667 21.333334 10.666667c11.2 0 46.933333 16.533333 46.933333 21.866667 0 2.133333 6.4 5.333333 14.4 7.466666 8 1.6 21.333333 8.533333 29.333333 14.4 13.333333 9.066667 14.933333 13.333333 11.733334 27.2-1.6 9.066667-5.333333 20.266667-8 25.066667-2.133333 4.266667-9.066667 20.266667-15.466667 34.666667-12.266667 28.8-43.2 82.666667-48 82.666666-1.6 0-9.6-5.866667-18.666667-12.8zM29.333333 670.933333c-3.733333-12.266667-13.866667-59.733333-18.666666-86.933333-9.066667-51.733333-3.733333-160.533333 6.933333-143.466667 3.733333 6.4 42.666667 4.266667 45.333333-2.666666 0.533333-2.133333 7.466667-3.2 15.466667-1.6 9.6 1.6 12.8 0.533333 10.133333-3.2-2.133333-4.266667-1.066667-5.333333 4.266667-3.2 4.266667 1.6 25.066667-0.533333 45.333333-5.333334 49.6-11.2 61.333333-11.2 57.066667 1.066667-2.133333 4.8 2.666667 2.133333 10.133333-6.933333 7.466667-8.533333 23.466667-26.666667 34.666667-39.466667 11.733333-12.8 21.333333-25.066667 21.333333-27.733333s2.666667-4.8 5.333334-4.8c3.2 0 5.333333 8.533333 5.333333 18.666666 0 16.533333-1.6 18.666667-13.333333 18.666667-10.666667 0-13.333333 2.666667-13.333334 13.333333 0 7.466667-4.266667 17.6-9.6 22.933334-36.266667 36.266667-75.2 131.733333-83.733333 204.266666l-3.2 30.4-48 3.733334c-33.6 2.666667-49.066667 5.866667-51.2 11.2-3.2 9.066667-17.066667 9.6-20.266667 1.066666zM438.4 614.933333c-2.666667-5.333333-6.4-17.6-8.533333-27.2-3.733333-22.4-19.2-42.666667-29.866667-40-14.4 4.266667-34.666667 14.4-51.733333 27.2l-17.6 12.8v-16.533333c0-12.8 2.133333-16.533333 10.666666-16.533333 5.866667 0 10.666667-3.2 10.666667-6.933334 0-10.666667 54.4-35.733333 76.8-35.733333h19.2v28.266667c0 14.933333 1.6 40.533333 3.2 56 3.733333 28.266667-3.2 37.866667-12.8 18.666666z" fill="#21CCB0" p-id="7285"></path><path d="M134.933333 778.666667c-6.933333-18.666667-27.2-21.866667-41.6-6.933334-8.533333 8.533333-9.6 8-19.2-4.266666-5.333333-6.933333-18.133333-32.533333-28.8-57.066667-23.466667-56.533333-21.333333-61.866667 27.733334-67.2 19.733333-2.666667 41.6-4.266667 48.533333-4.8 7.466667-0.533333 11.733333-3.733333 11.733333-10.666667 0-5.333333 2.666667-9.066667 6.4-8 3.733333 1.6 9.6 22.4 13.333334 50.133334 3.2 26.133333 10.133333 58.133333 14.4 70.933333 4.8 12.8 8.533333 29.866667 8.533333 38.4 0 13.866667-1.6 15.466667-17.6 15.466667-14.4 0-18.666667-2.666667-23.466667-16zM974.933333 653.333333c-10.133333-6.933333-25.066667-14.4-33.066666-16.533333-7.466667-1.6-13.866667-4.8-13.866667-6.933333 0-4.8-35.2-21.866667-44.8-21.866667-11.733333 0-35.2-13.866667-30.933333-18.666667 2.133333-2.133333-3.733333 0-13.333334 4.8-9.066667 4.266667-17.6 11.2-19.2 14.933334s-3.2-2.133333-3.2-12.8c-0.533333-13.333333 4.8-28.266667 15.466667-44.8 17.6-28.266667 40.533333-93.333333 45.866667-131.733334 3.2-24.533333 3.733333-25.066667 21.333333-25.066666 16.533333 0 18.133333 1.6 18.133333 14.933333 0 12.8 3.733333 16.533333 22.933334 24.533333 12.266667 5.866667 25.6 12.8 29.866666 16s17.066667 8.533333 29.333334 11.2l21.866666 5.333334 1.6 37.333333c2.133333 46.4-13.333333 144-25.6 158.4-1.6 2.133333-11.733333-1.6-22.4-9.066667z" fill="#18C4C8" p-id="7286"></path><path d="M356.266667 995.2c-72-25.066667-140.8-65.066667-188.266667-110.4-32.533333-30.933333-84.8-97.6-92.8-117.866667-4.8-12.266667-3.733333-14.4 9.066667-18.133333 8-2.133333 17.066667-4.266667 19.733333-4.8 21.866667-2.666667 40-10.133333 40-16.533333 0-15.466667 13.866667-6.933333 20.8 12.8 36.8 103.466667 98.133333 173.333333 214.933333 245.333333 8.533333 4.8 14.933333 12.266667 14.933334 16 0 3.2-0.533333 6.4-1.066667 5.866667-1.066667 0-17.6-5.866667-37.333333-12.266667zM984 477.866667c-11.733333-3.2-25.066667-8-29.333333-11.2-16-10.666667-45.333333-22.933333-49.066667-20.8-2.666667 1.6-4.8-6.4-4.8-17.6-0.533333-19.2-1.066667-19.2-7.466667 9.066666-8 33.6-8.533333 30.4-11.2-53.866666s-25.6-152.533333-73.066666-216.533334c-28.266667-37.866667-83.2-85.333333-124.266667-106.666666-18.133333-9.6-28.8-18.666667-28.8-24s3.2-9.6 7.466667-9.6c15.466667 0 118.4 48.533333 134.933333 63.466666 5.333333 4.8 19.2 15.466667 30.933333 24.533334 56.533333 42.133333 113.6 114.666667 146.133334 185.066666 18.666667 40 25.066667 62.933333 43.2 144 9.6 45.333333 8.533333 46.4-34.666667 34.133334z" fill="#0DBCE1" p-id="7287"></path><path d="M398.4 1008c-8.533333-2.666667-18.133333-6.933333-21.333333-9.6-3.733333-2.666667-12.8-6.4-20.8-8.533333-11.733333-2.666667-14.933333-6.4-14.933334-17.066667v-13.866667l18.666667 13.866667c10.133333 8 30.933333 20.266667 46.4 27.2 27.2 12.8 22.933333 17.066667-8 8zM277.333333 904c0-23.466667 4.8-23.466667 20.266667 0l11.733333 18.666667h-16c-14.933333 0-16-1.6-16-18.666667zM253.866667 868.266667c-1.6-6.933333-3.2-18.666667-3.2-26.666667 0-24.533333 13.333333-17.066667 22.4 11.733333l8.533333 26.666667h-12.266667c-8 0-13.333333-3.733333-15.466666-11.733333zM179.2 824c-11.733333-18.133333-10.666667-24 4.8-24 11.733333 0 13.333333 2.133333 13.333333 18.666667 0 21.866667-5.866667 24-18.133333 5.333333zM240 792c0-21.333333 12.8-26.133333 18.133333-6.4s3.733333 25.066667-7.466666 25.066667c-8.533333 0-10.666667-3.733333-10.666667-18.666667zM240 750.933333c0-41.066667 30.4-137.6 42.666667-137.6 2.133333 0 5.333333-4.8 6.933333-10.666666 2.133333-8 7.466667-10.666667 19.733333-10.666667h17.066667l-12.8 17.6c-27.733333 35.733333-47.466667 83.733333-54.933333 133.333333-3.733333 21.866667-18.666667 28.266667-18.666667 8zM142.933333 729.6c-3.2-12.8-6.4-50.666667-6.4-84.266667 0-49.066667 2.666667-69.333333 12.266667-101.333333 18.133333-59.2 41.066667-102.4 78.933333-147.733333 18.666667-22.4 36.266667-49.6 40-60.8 7.466667-26.133333 20.266667-27.733333 20.266667-2.133334 0 19.733333-9.6 45.333333-17.066667 45.333334-2.133333 0-4.266667 3.2-4.266666 7.466666s-6.933333 13.866667-16 20.8c-8.533333 7.466667-16 15.466667-16 17.066667s-5.866667 11.2-12.8 20.266667c-21.866667 28.8-50.666667 94.933333-59.733334 137.066666-8 38.933333-8 77.333333 1.066667 145.6 3.2 20.8 2.133333 25.066667-4.8 25.066667-5.333333 0-11.2-8-15.466667-22.4zM565.333333 723.2c-80-17.066667-133.333333-80.533333-133.333333-158.933333 0-20.266667-1.066667-36.266667-2.133333-36.266667-7.466667 0-42.666667 18.133333-66.133334 34.133333l-27.733333 19.2v-16c0-12.8 4.266667-18.666667 22.4-29.866666 35.733333-22.933333 53.866667-28.266667 109.333333-34.133334 85.333333-9.066667 131.733333-16.533333 137.6-21.866666 8-8 45.333333-5.866667 48.533334 3.2 2.133333 4.266667 6.933333 8 11.2 8 8.533333 0 44.8 15.466667 49.6 21.333333 1.6 1.6 13.333333 6.4 26.666666 10.133333s28.8 9.6 34.666667 12.8c35.2 19.733333 49.066667 25.066667 62.4 25.066667h15.466667l-21.333334 31.466667c-44.266667 65.066667-129.066667 122.133333-197.866666 133.333333-19.2 3.2-35.733333 5.866667-37.333334 5.333333-1.6 0-16-3.2-32-6.933333zM267.2 276.8c-14.4-48.533333-70.4-84.8-117.866667-76.8-19.2 3.2-21.333333 2.666667-21.333333-7.466667s3.2-11.2 34.133333-11.2c30.4 0 65.6 7.466667 72.533334 15.466667 1.6 1.6 7.466667 5.866667 12.8 9.066667 5.866667 3.2 12.8 10.133333 16 16 3.2 5.333333 7.466667 11.2 9.066666 12.8 8.533333 6.933333 15.466667 27.733333 15.466667 44.8 0 26.666667-12.8 25.066667-20.8-2.666667zM99.2 217.066667c5.333333-7.466667 11.733333-14.4 14.4-14.4 8 0 3.2 8.533333-10.666667 18.133333l-14.4 10.666667 10.666667-14.4z" fill="#79E1CC" p-id="7288"></path><path d="M398.933333 1008c-29.866667-9.066667-97.066667-45.866667-118.4-65.066667l-21.866666-19.733333 20.266666-0.533333c13.866667 0 19.733333 2.133333 19.733334 8 0 4.266667 4.8 8 10.666666 8s10.666667 2.666667 10.666667 5.333333c0 3.2 3.2 5.333333 7.466667 5.333333s11.2 4.266667 14.933333 9.6c6.933333 9.6 49.066667 38.4 56 38.4 2.666667 0 9.066667 3.733333 14.4 8 11.733333 8.533333 8 9.6-13.866667 2.666667zM209.066667 872c-9.066667-12.8-20.266667-30.4-23.466667-38.4-3.733333-8-8-16-10.133333-17.6-8.533333-6.933333-30.4-76.266667-34.133334-109.333333-1.066667-8.533333-2.133333-18.133333-2.666666-21.333334-2.666667-12.8 0.533333-24 7.466666-24 4.8 0 8.533333 9.6 10.666667 27.2 2.133333 14.933333 9.6 43.2 17.066667 62.4 7.466667 19.733333 14.933333 40.533333 16.533333 46.4 2.133333 5.866667 6.933333 13.866667 10.666667 17.6s6.933333 10.666667 6.933333 14.933334 2.666667 7.466667 5.333333 7.466666c3.2 0 5.333333 3.2 5.333334 7.466667s3.733333 8.533333 8 10.666667c8 2.666667 11.733333 40.533333 4.266666 40.533333-2.666667-0.533333-12.266667-11.2-21.866666-24zM816.533333 574.933333c-12.8-2.133333-32.533333-10.133333-43.733333-17.6s-23.466667-13.333333-27.2-13.333333c-7.466667 0-43.2-12.266667-46.933333-16-5.333333-5.333333-29.866667-16.533333-42.133334-18.666667-6.933333-1.066667-15.466667-6.4-19.2-11.733333-5.333333-6.933333-8.533333-7.466667-13.866666-3.733333-6.4 4.8-61.333333 18.133333-75.2 18.133333-2.133333 0-4.266667-4.266667-4.266667-10.133333 0-6.933333 4.8-11.2 17.6-13.333334 34.666667-6.4 84.266667-34.666667 115.733333-66.133333 28.8-28.8 64-86.4 64-105.066667 0-5.866667 5.333333-8 18.666667-8 16.533333 0 18.666667 1.6 18.666667 13.333334 0 10.133333 3.733333 13.866667 14.933333 16.533333 24 5.333333 45.866667 13.866667 51.733333 21.333333 3.2 3.733333 17.066667 8 30.933334 10.133334 28.266667 4.266667 27.733333 3.2 19.2 55.466666-7.466667 45.333333-28.266667 109.866667-43.733334 134.4-11.2 18.133333-12.266667 18.666667-35.2 14.4z" fill="#74DCDF" p-id="7289"></path><path d="M401.6 1009.6c-6.933333-1.066667-12.266667-4.8-12.266667-8s-1.6-4.266667-3.733333-2.666667c-1.6 2.133333-6.4 1.066667-10.133333-1.6-3.2-3.2-11.733333-6.933333-17.6-8-6.4-1.066667-17.6-6.933333-25.6-12.8-7.466667-6.4-17.066667-11.2-20.8-11.2-4.266667 0-7.466667-2.133333-7.466667-5.333333 0-2.666667-2.666667-5.333333-5.866667-5.333333-10.133333 0-79.466667-64.533333-79.466666-74.133334 0-3.2 5.333333-5.866667 12.266666-5.866666 15.466667 0 41.066667 26.133333 41.066667 41.6 0 9.6 3.2 11.733333 16 11.733333 9.6 0 17.6 3.2 19.2 8 2.133333 4.266667 6.4 8 10.666667 8s7.466667 4.8 7.466666 10.666667c0 7.466667 3.733333 10.666667 11.2 10.666666 5.866667 0 21.333333 7.466667 34.133334 16 12.8 9.066667 25.6 16 28.266666 16s8 3.733333 11.733334 8 5.866667 7.466667 4.8 7.466667c-1.066667-0.533333-7.466667-2.133333-13.866667-3.2zM202.133333 860.266667c-4.266667-5.333333-11.2-17.6-14.933333-26.666667-3.733333-9.6-8.533333-17.6-10.666667-17.6s-3.733333-4.8-4.266666-10.666667c-0.533333-7.466667 2.133333-10.666667 9.6-10.666666 8 0 10.133333 3.733333 10.133333 18.666666s2.133333 18.666667 10.666667 18.666667 10.666667 3.733333 10.666666 18.666667c0 21.333333-0.533333 21.866667-11.2 9.6zM890.666667 397.866667c0-4.8-9.6-8.533333-29.333334-11.2-16-1.6-29.333333-5.866667-29.333333-8.533334 0-5.866667-28.266667-18.133333-54.933333-22.933333-11.2-2.133333-18.666667-5.866667-17.066667-9.066667 2.133333-2.666667 2.133333-4.8 0.533333-4.8s-6.4 6.4-11.2 14.933334c-8 13.866667-8.533333 12.8-4.266666-22.933334 11.2-104.533333 1.066667-154.666667-43.733334-216-26.133333-35.2-81.066667-74.666667-118.4-85.866666-17.066667-4.8-22.933333-9.066667-22.933333-17.066667 0-9.066667 2.666667-9.6 28.266667-6.4 139.733333 19.2 262.933333 131.2 299.2 272.533333 11.2 43.733333 17.066667 124.8 9.066666 124.8-3.2 0-5.866667-3.2-5.866666-7.466666z" fill="#6CD5F1" p-id="7290"></path><path d="M388.266667 1001.066667c-8.533333-3.2-14.933333-7.466667-14.933334-10.133334 0-5.866667 1.066667-5.333333 20.266667 4.266667 26.133333 12.8 22.4 17.066667-5.333333 5.866667zM338.666667 978.666667c-26.666667-14.4-82.666667-53.866667-82.666667-58.666667 0-1.6 8.533333-2.666667 18.666667-2.666667 12.8 0 18.666667 2.666667 18.666666 8 0 4.266667 4.8 8 10.666667 8s10.666667 2.666667 10.666667 5.333334c0 3.2 3.733333 5.333333 8 5.333333s8 3.733333 8 8 3.2 8 6.933333 8c9.6 0.533333 31.466667 20.266667 29.333333 26.666667-1.066667 3.733333-12.8 0-28.266666-8zM210.666667 868.8c-13.333333-18.133333-24-34.666667-24-37.333333s5.866667-4.8 13.333333-4.8c8.533333 0 13.333333 3.2 13.333333 8 0 4.266667 2.666667 8 5.333334 8 3.2 0 5.333333 4.8 5.333333 10.666666s3.733333 10.666667 8 10.666667c5.333333 0 8 5.866667 8 18.666667 0 10.133333-1.066667 18.666667-2.666667 18.666666s-13.333333-14.4-26.666666-32.533333zM418.133333 498.666667c2.666667-23.466667 1.6-29.333333-4.266666-29.333334-4.266667 0-17.6-8.533333-29.866667-18.666666s-24.533333-18.666667-27.2-18.666667c-3.2 0-9.066667-3.2-13.333333-6.4-4.266667-3.733333-10.666667-9.066667-14.4-12.266667-18.133333-14.933333-45.333333-22.933333-69.333334-20.266666l-25.066666 3.2 18.666666-28.266667c16.533333-24.533333 18.666667-32 18.666667-61.333333 0-28.8-2.133333-36.8-17.066667-59.2-30.4-44.266667-82.666667-60.8-129.066666-40.533334-27.733333 12.8-27.2 10.133333 6.4-29.333333 28.8-34.133333 86.933333-82.133333 128-105.066667C341.333333 27.2 399.466667 11.2 496 7.466667c62.933333-2.666667 75.733333-1.6 102.4 7.466666 85.866667 30.4 153.6 110.4 167.466667 198.4 3.2 19.2 2.133333 21.333333-8 21.333334-8 0-11.2-3.2-11.733334-11.733334 0-6.933333-3.2-20.8-6.933333-30.933333-6.4-18.133333-6.933333-17.6-10.133333 26.133333-2.666667 33.066667-7.466667 53.333333-18.666667 77.333334-28.8 60.8-62.4 89.6-134.933333 113.6-40 13.333333-48.533333 18.666667-79.466667 49.6l-34.666667 34.666666 22.933334 1.6c14.933333 1.066667 22.4 4.266667 22.4 9.6 0 4.266667-0.533333 7.466667-1.066667 7.466667-2.666667 0-60.266667 10.133333-75.733333 13.333333l-15.466667 3.2 3.733333-29.866666z" fill="#C8EEE9" p-id="7291"></path><path d="M528 501.866667c0-8 5.333333-10.666667 24-13.333334 35.733333-5.866667 93.333333-36.8 124.8-67.733333 29.333333-29.866667 62.4-89.6 67.733333-123.2 2.666667-14.933333 5.866667-20.266667 13.333334-20.266667 12.266667 0 12.8 13.866667 2.666666 48.533334-26.666667 88-90.666667 151.466667-178.666666 177.6-39.466667 11.733333-53.866667 11.2-53.866667-1.6z" fill="#C8EEE9" p-id="7292"></path><path d="M341.333333 978.666667c-75.733333-40.533333-127.466667-93.333333-165.866666-170.666667-35.733333-72-46.4-162.133333-28.8-245.333333 11.2-53.866667 50.133333-129.6 85.333333-165.333334 15.466667-16 26.133333-27.733333 23.466667-26.133333-3.2 1.6-2.666667-1.6 1.066666-8 5.333333-8 8.533333-9.066667 11.733334-4.266667 3.2 4.266667 3.733333 2.133333 2.133333-5.333333-1.6-6.933333 0-13.866667 2.666667-16 3.2-1.6 4.266667-0.533333 2.133333 2.666667-1.6 3.2 2.666667 12.266667 10.133333 20.266666s13.333333 12.8 13.333334 10.666667 3.733333 0 8.533333 4.8 15.466667 10.133333 24 11.733333 13.866667 4.8 12.8 6.933334c-1.6 2.666667 2.133333 5.866667 8 8 5.866667 1.6 10.666667 5.866667 10.666667 9.066666 0 2.666667 3.2 4.266667 6.4 3.2 3.733333-1.6 12.8 3.2 19.733333 9.6 7.466667 6.933333 15.466667 10.666667 18.133333 9.066667 3.2-1.6 3.733333-0.533333 1.6 3.2-2.666667 4.266667 1.6 8.533333 12.266667 12.8 9.066667 3.2 16.533333 8 16.533333 10.133333s3.733333 2.666667 8 1.066667c4.266667-2.133333 6.4-5.333333 4.8-8s1.066667-4.8 5.866667-4.8c5.333333 0 6.933333 2.666667 4.8 6.933333-2.133333 3.2 1.066667 1.6 7.466667-3.733333 11.733333-10.133333 11.733333-10.133333 11.733333 1.6 0 18.133333-31.466667 69.866667-42.666667 69.866667-18.666667 0-72.533333 33.066667-102.933333 62.933333-101.333333 99.733333-102.933333 259.733333-2.666667 360 18.666667 18.666667 39.466667 37.866667 46.933334 42.666667 25.066667 16-1.6 9.066667-37.333334-9.6zM273.6 306.666667c0-11.733333 1.066667-16 2.133333-9.066667 1.066667 6.4 1.066667 16 0 21.333333-1.6 4.8-2.666667-0.533333-2.133333-12.266666z" fill="#D1F3DF" p-id="7293"></path><path d="M432 520.533333c0-2.133333 5.866667-16.533333 13.333333-32.533333 21.333333-44.266667 60.266667-76.8 114.666667-94.933333 72.533333-24.533333 105.6-52.8 135.466667-115.733334 13.866667-29.866667 16-40.533333 15.466666-77.333333 0-69.333333-27.733333-123.2-83.2-163.2-11.733333-8.533333-19.2-15.466667-16.533333-15.466667 12.8 0 61.333333 34.133333 85.333333 59.733334 95.466667 100.8 94.4 250.666667-1.6 351.466666-48.533333 50.666667-98.133333 72-188.266666 80-27.733333 2.133333-56 5.866667-62.4 8-6.933333 1.6-12.266667 1.6-12.266667 0z" fill="#FFFFFF" p-id="7294"></path></svg>